<svg width="56" height="34" viewBox="0 0 56 34" fill="none" xmlns="http://www.w3.org/2000/svg">
<path d="M1.368 23V6.2H9.456C11.024 6.2 12.376 6.456 13.512 6.968C14.664 7.48 15.552 8.216 16.176 9.176C16.8 10.12 17.112 11.24 17.112 12.536C17.112 13.832 16.8 14.952 16.176 15.896C15.552 16.84 14.664 17.576 13.512 18.104C12.376 18.616 11.024 18.872 9.456 18.872H4.512L7.032 16.448V23H1.368ZM7.032 17.072L4.512 14.504H9.096C9.88 14.504 10.456 14.328 10.824 13.976C11.208 13.624 11.4 13.144 11.4 12.536C11.4 11.928 11.208 11.448 10.824 11.096C10.456 10.744 9.88 10.568 9.096 10.568H4.512L7.032 8V17.072ZM18.9696 23V6.2H26.8176C29.3936 6.2 31.3536 6.768 32.6976 7.904C34.0416 9.04 34.7136 10.584 34.7136 12.536C34.7136 13.832 34.4016 14.952 33.7776 15.896C33.1536 16.824 32.2656 17.536 31.1136 18.032C29.9776 18.528 28.6256 18.776 27.0576 18.776H22.1136L24.6336 16.448V23H18.9696ZM29.0256 23L24.8976 16.88H30.8976L35.0736 23H29.0256ZM24.6336 17.072L22.1136 14.504H26.6976C27.4816 14.504 28.0576 14.328 28.4256 13.976C28.8096 13.624 29.0016 13.144 29.0016 12.536C29.0016 11.928 28.8096 11.448 28.4256 11.096C28.0576 10.744 27.4816 10.568 26.6976 10.568H22.1136L24.6336 8V17.072ZM45.6604 23.384C44.3004 23.384 43.0364 23.168 41.8684 22.736C40.7164 22.304 39.7164 21.696 38.8684 20.912C38.0204 20.112 37.3564 19.176 36.8764 18.104C36.4124 17.032 36.1804 15.864 36.1804 14.6C36.1804 13.32 36.4124 12.152 36.8764 11.096C37.3564 10.024 38.0204 9.096 38.8684 8.312C39.7164 7.512 40.7164 6.896 41.8684 6.464C43.0364 6.032 44.3004 5.816 45.6604 5.816C47.0364 5.816 48.3004 6.032 49.4524 6.464C50.6044 6.896 51.6044 7.512 52.4524 8.312C53.3004 9.096 53.9564 10.024 54.4204 11.096C54.9004 12.152 55.1404 13.32 55.1404 14.6C55.1404 15.864 54.9004 17.032 54.4204 18.104C53.9564 19.176 53.3004 20.112 52.4524 20.912C51.6044 21.696 50.6044 22.304 49.4524 22.736C48.3004 23.168 47.0364 23.384 45.6604 23.384ZM45.6604 18.8C46.1884 18.8 46.6764 18.704 47.1244 18.512C47.5884 18.32 47.9884 18.048 48.3244 17.696C48.6764 17.328 48.9484 16.888 49.1404 16.376C49.3324 15.848 49.4284 15.256 49.4284 14.6C49.4284 13.944 49.3324 13.36 49.1404 12.848C48.9484 12.32 48.6764 11.88 48.3244 11.528C47.9884 11.16 47.5884 10.88 47.1244 10.688C46.6764 10.496 46.1884 10.4 45.6604 10.4C45.1324 10.4 44.6364 10.496 44.1724 10.688C43.7244 10.88 43.3244 11.16 42.9724 11.528C42.6364 11.88 42.3724 12.32 42.1804 12.848C41.9884 13.36 41.8924 13.944 41.8924 14.6C41.8924 15.256 41.9884 15.848 42.1804 16.376C42.3724 16.888 42.6364 17.328 42.9724 17.696C43.3244 18.048 43.7244 18.32 44.1724 18.512C44.6364 18.704 45.1324 18.8 45.6604 18.8Z" fill="#049F7C"/>
<path d="M3.456 32.048C3.04 32.048 2.64 31.9813 2.256 31.848C1.87733 31.7093 1.584 31.5333 1.376 31.32L1.608 30.864C1.80533 31.056 2.06933 31.2187 2.4 31.352C2.736 31.48 3.088 31.544 3.456 31.544C3.808 31.544 4.09333 31.5013 4.312 31.416C4.536 31.3253 4.69867 31.2053 4.8 31.056C4.90667 30.9067 4.96 30.7413 4.96 30.56C4.96 30.3413 4.896 30.1653 4.768 30.032C4.64533 29.8987 4.48267 29.7947 4.28 29.72C4.07733 29.64 3.85333 29.5707 3.608 29.512C3.36267 29.4533 3.11733 29.392 2.872 29.328C2.62667 29.2587 2.4 29.168 2.192 29.056C1.98933 28.944 1.824 28.7973 1.696 28.616C1.57333 28.4293 1.512 28.1867 1.512 27.888C1.512 27.6107 1.584 27.3573 1.728 27.128C1.87733 26.8933 2.104 26.7067 2.408 26.568C2.712 26.424 3.10133 26.352 3.576 26.352C3.89067 26.352 4.20267 26.3973 4.512 26.488C4.82133 26.5733 5.088 26.6933 5.312 26.848L5.112 27.32C4.872 27.16 4.616 27.0427 4.344 26.968C4.07733 26.8933 3.81867 26.856 3.568 26.856C3.232 26.856 2.95467 26.9013 2.736 26.992C2.51733 27.0827 2.35467 27.2053 2.248 27.36C2.14667 27.5093 2.096 27.68 2.096 27.872C2.096 28.0907 2.15733 28.2667 2.28 28.4C2.408 28.5333 2.57333 28.6373 2.776 28.712C2.984 28.7867 3.21067 28.8533 3.456 28.912C3.70133 28.9707 3.944 29.0347 4.184 29.104C4.42933 29.1733 4.65333 29.264 4.856 29.376C5.064 29.4827 5.22933 29.6267 5.352 29.808C5.48 29.9893 5.544 30.2267 5.544 30.52C5.544 30.792 5.46933 31.0453 5.32 31.28C5.17067 31.5093 4.94133 31.696 4.632 31.84C4.328 31.9787 3.936 32.048 3.456 32.048ZM13.4259 32.048C13.0045 32.048 12.6152 31.9787 12.2579 31.84C11.9005 31.696 11.5912 31.496 11.3299 31.24C11.0685 30.984 10.8632 30.6827 10.7139 30.336C10.5699 29.9893 10.4979 29.6107 10.4979 29.2C10.4979 28.7893 10.5699 28.4107 10.7139 28.064C10.8632 27.7173 11.0685 27.416 11.3299 27.16C11.5965 26.904 11.9085 26.7067 12.2659 26.568C12.6232 26.424 13.0125 26.352 13.4339 26.352C13.8392 26.352 14.2205 26.4213 14.5779 26.56C14.9352 26.6933 15.2365 26.896 15.4819 27.168L15.1059 27.544C14.8765 27.3093 14.6232 27.1413 14.3459 27.04C14.0685 26.9333 13.7699 26.88 13.4499 26.88C13.1139 26.88 12.8019 26.9387 12.5139 27.056C12.2259 27.168 11.9752 27.3307 11.7619 27.544C11.5485 27.752 11.3805 27.9973 11.2579 28.28C11.1405 28.5573 11.0819 28.864 11.0819 29.2C11.0819 29.536 11.1405 29.8453 11.2579 30.128C11.3805 30.4053 11.5485 30.6507 11.7619 30.864C11.9752 31.072 12.2259 31.2347 12.5139 31.352C12.8019 31.464 13.1139 31.52 13.4499 31.52C13.7699 31.52 14.0685 31.4667 14.3459 31.36C14.6232 31.2533 14.8765 31.0827 15.1059 30.848L15.4819 31.224C15.2365 31.496 14.9352 31.7013 14.5779 31.84C14.2205 31.9787 13.8365 32.048 13.4259 32.048ZM22.9925 32.048C22.5712 32.048 22.1792 31.9787 21.8165 31.84C21.4592 31.696 21.1472 31.496 20.8805 31.24C20.6192 30.9787 20.4138 30.6773 20.2645 30.336C20.1205 29.9893 20.0485 29.6107 20.0485 29.2C20.0485 28.7893 20.1205 28.4133 20.2645 28.072C20.4138 27.7253 20.6192 27.424 20.8805 27.168C21.1472 26.9067 21.4592 26.7067 21.8165 26.568C22.1738 26.424 22.5658 26.352 22.9925 26.352C23.4138 26.352 23.8032 26.424 24.1605 26.568C24.5178 26.7067 24.8272 26.904 25.0885 27.16C25.3552 27.416 25.5605 27.7173 25.7045 28.064C25.8538 28.4107 25.9285 28.7893 25.9285 29.2C25.9285 29.6107 25.8538 29.9893 25.7045 30.336C25.5605 30.6827 25.3552 30.984 25.0885 31.24C24.8272 31.496 24.5178 31.696 24.1605 31.84C23.8032 31.9787 23.4138 32.048 22.9925 32.048ZM22.9925 31.52C23.3285 31.52 23.6378 31.464 23.9205 31.352C24.2085 31.2347 24.4565 31.072 24.6645 30.864C24.8778 30.6507 25.0432 30.4053 25.1605 30.128C25.2778 29.8453 25.3365 29.536 25.3365 29.2C25.3365 28.864 25.2778 28.5573 25.1605 28.28C25.0432 27.9973 24.8778 27.752 24.6645 27.544C24.4565 27.3307 24.2085 27.168 23.9205 27.056C23.6378 26.9387 23.3285 26.88 22.9925 26.88C22.6565 26.88 22.3445 26.9387 22.0565 27.056C21.7685 27.168 21.5178 27.3307 21.3045 27.544C21.0965 27.752 20.9312 27.9973 20.8085 28.28C20.6912 28.5573 20.6325 28.864 20.6325 29.2C20.6325 29.5307 20.6912 29.8373 20.8085 30.12C20.9312 30.4027 21.0965 30.6507 21.3045 30.864C21.5178 31.072 21.7685 31.2347 22.0565 31.352C22.3445 31.464 22.6565 31.52 22.9925 31.52ZM31.4154 32V26.4H33.5114C34.2208 26.4 34.7781 26.5707 35.1834 26.912C35.5941 27.248 35.7994 27.7173 35.7994 28.32C35.7994 28.7147 35.7061 29.056 35.5194 29.344C35.3381 29.6267 35.0768 29.8453 34.7354 30C34.3941 30.1493 33.9861 30.224 33.5114 30.224H31.7434L32.0074 29.952V32H31.4154ZM35.2394 32L33.7994 29.968H34.4394L35.8874 32H35.2394ZM32.0074 30L31.7434 29.72H33.4954C34.0554 29.72 34.4794 29.5973 34.7674 29.352C35.0608 29.1067 35.2074 28.7627 35.2074 28.32C35.2074 27.872 35.0608 27.5253 34.7674 27.28C34.4794 27.0347 34.0554 26.912 33.4954 26.912H31.7434L32.0074 26.632V30ZM41.3567 32V26.4H45.1967V26.912H41.9487V31.488H45.3167V32H41.3567ZM41.8847 29.408V28.904H44.8447V29.408H41.8847ZM52.4122 32.048C51.9962 32.048 51.5962 31.9813 51.2122 31.848C50.8336 31.7093 50.5402 31.5333 50.3322 31.32L50.5642 30.864C50.7616 31.056 51.0256 31.2187 51.3562 31.352C51.6922 31.48 52.0442 31.544 52.4122 31.544C52.7642 31.544 53.0496 31.5013 53.2682 31.416C53.4922 31.3253 53.6549 31.2053 53.7562 31.056C53.8629 30.9067 53.9162 30.7413 53.9162 30.56C53.9162 30.3413 53.8522 30.1653 53.7242 30.032C53.6016 29.8987 53.4389 29.7947 53.2362 29.72C53.0336 29.64 52.8096 29.5707 52.5642 29.512C52.3189 29.4533 52.0736 29.392 51.8282 29.328C51.5829 29.2587 51.3562 29.168 51.1482 29.056C50.9456 28.944 50.7802 28.7973 50.6522 28.616C50.5296 28.4293 50.4682 28.1867 50.4682 27.888C50.4682 27.6107 50.5402 27.3573 50.6842 27.128C50.8336 26.8933 51.0602 26.7067 51.3642 26.568C51.6682 26.424 52.0576 26.352 52.5322 26.352C52.8469 26.352 53.1589 26.3973 53.4682 26.488C53.7776 26.5733 54.0442 26.6933 54.2682 26.848L54.0682 27.32C53.8282 27.16 53.5722 27.0427 53.3002 26.968C53.0336 26.8933 52.7749 26.856 52.5242 26.856C52.1882 26.856 51.9109 26.9013 51.6922 26.992C51.4736 27.0827 51.3109 27.2053 51.2042 27.36C51.1029 27.5093 51.0522 27.68 51.0522 27.872C51.0522 28.0907 51.1136 28.2667 51.2362 28.4C51.3642 28.5333 51.5296 28.6373 51.7322 28.712C51.9402 28.7867 52.1669 28.8533 52.4122 28.912C52.6576 28.9707 52.9002 29.0347 53.1402 29.104C53.3856 29.1733 53.6096 29.264 53.8122 29.376C54.0202 29.4827 54.1856 29.6267 54.3082 29.808C54.4362 29.9893 54.5002 30.2267 54.5002 30.52C54.5002 30.792 54.4256 31.0453 54.2762 31.28C54.1269 31.5093 53.8976 31.696 53.5882 31.84C53.2842 31.9787 52.8922 32.048 52.4122 32.048Z" fill="#F3F9F8"/>
</svg>
